<?xml version="1.0" encoding="UTF-8"?>
<!DOCTYPE svg PUBLIC "-//W3C//DTD SVG 1.0//EN" "http://www.w3.org/TR/2001/REC-SVG-20010904/DTD/svg10.dtd">
<!-- Creator: CorelDRAW 2017 -->
<svg xmlns="http://www.w3.org/2000/svg" xml:space="preserve" width="302px" height="74px" version="1.0" style="shape-rendering:geometricPrecision; text-rendering:geometricPrecision; image-rendering:optimizeQuality; fill-rule:evenodd; clip-rule:evenodd"
viewBox="0 0 2862.44 701.68"
 xmlns:xlink="http://www.w3.org/1999/xlink">
 <defs>
  <style type="text/css">
   <![CDATA[
    .fil1 {fill:#FEFEFE}
    .fil0 {fill:#FEFEFE;fill-rule:nonzero}
   ]]>
  </style>
 </defs>
 <g id="Слой_x0020_1">
  <metadata id="CorelCorpID_0Corel-Layer"/>
  <g id="_2615836231904">
   <path class="fil0" d="M991.05 442.22l-91.56 -249.4 -30.86 0 -91.91 249.4 25.96 0 29.11 -80.68 103.83 0 29.47 80.68 25.96 0zm-107.69 -223.8l0.7 0 43.85 121.02 -88.4 0 43.85 -121.02zm246.95 65.6l0 158.2 24.56 0 0 -179.6 -106.29 0 -15.08 105.93 0 -0.35c-3.04,22.92 -13.45,42.68 -31.22,59.28l16.84 17.89c21.51,-20.11 34.37,-44.66 38.58,-73.66l12.28 -87.69 60.33 0zm195.04 11.22l0 146.98 24.21 0 0 -179.6 -29.12 0 -97.16 145.22 0 -145.22 -24.21 0 0 179.6 27.01 0 99.27 -146.98zm146.63 128.74c-18.7,0 -32.91,-3.63 -42.61,-10.88 -9.71,-7.25 -14.56,-20.23 -14.56,-38.93l0 -43.85c0,-18.24 4.56,-31.04 13.68,-38.41 9.12,-7.37 23.62,-11.05 43.49,-11.05 0.7,0 2.11,0.12 4.21,0.35l0 142.77 -4.21 0zm32.62 21.39c29.94,0 51.04,-6.25 63.32,-18.76 12.28,-12.51 18.42,-30 18.42,-52.44l0 -43.5c0,-22.22 -5.91,-39.64 -17.72,-52.27 -11.81,-12.62 -33.15,-18.94 -64.02,-18.94 -0.46,0 -1.75,0.12 -3.85,0.35l0 -66.99 -24.56 0 0 66.99c-2.1,-0.23 -3.51,-0.35 -4.21,-0.35 -30.87,0 -52.2,6.32 -64.01,18.94 -11.81,12.63 -17.72,30.05 -17.72,52.27l0 43.5c0,22.44 6.14,39.93 18.42,52.44 12.28,12.51 33.38,18.76 63.31,18.76 0.7,0 2.11,-0.11 4.21,-0.35l0 67 24.56 0 0 -67c2.1,0.24 3.39,0.35 3.85,0.35zm-4.2 -164.16c2.1,-0.23 3.5,-0.35 4.2,-0.35 19.88,0 34.38,3.63 43.5,10.87 9.12,7.25 13.68,20.12 13.68,38.59l0 43.85c0,18.7 -4.85,31.68 -14.55,38.93 -9.71,7.25 -23.92,10.88 -42.63,10.88l-4.2 0 0 -142.77zm203.74 75.07c0,5.84 0.23,11.16 0.7,15.96 0.47,4.79 1.52,10.4 3.16,16.83 1.63,6.43 3.86,12.11 6.66,17.02 2.81,4.91 6.9,9.94 12.28,15.08 5.38,5.14 11.69,9.41 18.94,12.8 7.25,3.39 16.31,6.14 27.19,8.25 10.87,2.1 23.09,3.15 36.65,3.15 19.41,0 40.34,-2.1 62.79,-6.31l0 -21.75c-23.62,4.21 -44.55,6.31 -62.79,6.31 -10.99,0 -20.81,-0.87 -29.46,-2.63 -8.66,-1.75 -15.79,-3.85 -21.4,-6.31 -5.61,-2.45 -10.41,-5.84 -14.38,-10.17 -3.98,-4.33 -6.96,-8.36 -8.95,-12.1 -1.98,-3.75 -3.5,-8.42 -4.56,-14.03 -1.05,-5.62 -1.69,-10.24 -1.93,-13.86 -0.23,-3.63 -0.35,-8.24 -0.35,-13.85l0 -66.3c0,-5.61 0.12,-10.23 0.35,-13.86 0.24,-3.62 0.88,-8.24 1.93,-13.85 1.06,-5.61 2.58,-10.29 4.56,-14.03 1.99,-3.75 4.97,-7.78 8.95,-12.11 3.97,-4.32 8.77,-7.71 14.38,-10.17 5.61,-2.45 12.74,-4.56 21.4,-6.31 8.65,-1.76 18.47,-2.63 29.46,-2.63 15.9,0 36.84,2.1 62.79,6.31l0 -22.1c-23.85,-3.97 -44.78,-5.96 -62.79,-5.96 -14.26,0 -27.06,1.23 -38.41,3.68 -11.34,2.46 -20.63,5.44 -27.88,8.95 -7.25,3.5 -13.51,8.18 -18.77,14.03 -5.26,5.85 -9.18,11.22 -11.75,16.13 -2.57,4.91 -4.56,10.99 -5.97,18.24 -1.4,7.25 -2.22,13.04 -2.45,17.37 -0.23,4.32 -0.35,9.76 -0.35,16.31l0 50.86 0 21.05zm317.81 -15.44c-22.68,-1.17 -42.09,-1.75 -58.23,-1.75 -42.09,0 -63.14,18.47 -63.14,55.42 0,33.91 22.57,50.86 67.7,50.86 22.69,0 41.51,-3.62 56.48,-10.87l3.51 7.72 18.24 0 0 -113.65c-0.24,-7.25 -0.59,-12.98 -1.06,-17.19 -0.47,-4.21 -2.1,-10.06 -4.91,-17.54 -2.8,-7.48 -6.72,-13.39 -11.75,-17.72 -5.03,-4.32 -12.63,-8.18 -22.8,-11.57 -10.17,-3.39 -22.51,-5.09 -37.01,-5.09 -19.41,0 -36.59,1.64 -51.56,4.91l0 21.4c16.84,-3.27 33.09,-4.91 48.76,-4.91 20.81,0 35.31,3.98 43.49,11.93 8.19,7.95 12.28,19.87 12.28,35.78l0 12.27zm-96.46 51.57c0,-10.53 3.21,-18.54 9.65,-24.03 6.43,-5.5 17.01,-8.25 31.74,-8.25 15.67,0 34.03,0.59 55.07,1.76l0 53.32c-14.97,5.84 -32.15,8.77 -51.56,8.77 -16.84,0 -28.53,-2.81 -35.08,-8.42 -6.55,-5.61 -9.82,-13.33 -9.82,-23.15zm236.78 -111.55c20.81,0 34.84,3.63 42.09,10.87 7.25,7.25 10.88,20.23 10.88,38.94l0 43.15c0,19.64 -3.92,32.91 -11.76,39.81 -7.83,6.9 -21.57,10.35 -41.21,10.35 -21.52,0 -38.94,-2.23 -52.27,-6.67l0 -129.08c15.91,-4.91 33.33,-7.37 52.27,-7.37zm-1.75 -21.4c-6.55,0 -15.38,1 -26.49,2.98 -11.1,1.99 -20.17,4.62 -27.18,7.9l-3.16 -7.72 -18.24 0 0 249.4 24.55 0 0 -74.01c19.65,4.91 37.07,7.36 52.27,7.36 29.46,0 49.81,-6.13 61.03,-18.41 11.23,-12.28 16.84,-29.88 16.84,-52.79l0 -43.5c0,-23.15 -5.9,-40.81 -17.71,-52.97 -11.81,-12.16 -32.45,-18.24 -61.91,-18.24zm298.86 32.63l13.33 150.13 23.5 0 -15.08 -179.6 -28.41 0 -67 128.38 -67 -128.38 -28.76 0 -15.08 179.6 23.85 0c1.4,-18.48 3.62,-45.49 6.66,-81.03 3.04,-35.55 4.91,-58.23 5.62,-68.05l64.89 125.57 18.59 0 64.89 -126.62zm149.79 153.28c29.94,0 50.92,-6.19 62.97,-18.59 12.04,-12.39 18.3,-29.81 18.76,-52.26l0 -43.85c0,-22.22 -5.96,-39.64 -17.89,-52.27 -11.92,-12.62 -33.2,-18.94 -63.84,-18.94 -30.86,0 -52.2,6.32 -64.01,18.94 -11.81,12.63 -17.72,30.05 -17.72,52.27l0 43.5c0,22.44 6.14,39.93 18.42,52.44 12.28,12.51 33.38,18.76 63.31,18.76zm0 -21.39c-18.7,0 -32.85,-3.63 -42.44,-10.88 -9.59,-7.25 -14.5,-20.23 -14.73,-38.93l0 -3.16 0 -1.05 0 -1.06 0 -1.05 0 -1.05 0 -1.05 0 -1.06 0 -1.05 0 -0.7 0 -1.05 0 -1.05 0 -1.06 0 -1.05 0 -1.05 0 -1.05 0 -1.05 0 -1.06 0 -1.05 0 -1.05 0 -1.05 0 -1.06 0 -1.05 0 -1.05 0 -1.05 0 -1.05 0 -1.06 0 -1.05 0 -1.05 0 -1.05 0 -1.06 0 -1.05 0 -1.05 0 -1.05 0 -1.06 0 -1.05 0 -1.05 0 -1.05 0 -1.06 0 -1.05 0 -1.05c0,-18.24 4.56,-31.04 13.68,-38.41 9.12,-7.37 23.62,-11.05 43.49,-11.05 19.41,0 33.79,3.57 43.15,10.7 9.35,7.13 14.03,20.05 14.03,38.76l0 3.51 0 0.35 0 0.35 0 0.35 0 0.35 0 0.35 0 0.35 0 0.35 0 0.35 0 0.35 0 0.35 0 0.36 0 0.35 0 0.35 0 0.35 0 0.35 0 0.35 0 0.35 0 0.35 0 0.35 0 0.35 0 0.35 0 0.35 0 0.36 0 0.35 0 0.35 0 0.35 0 0.35 0 0.35 0 0.35 0 0.35 0 0.35 0 0.35 0 0.35 0 0.35 0 0.36 0 0.35 0 0.35 0 0.35 0 0.35 0 0.35 0 0.35 0 0.35 0 0.35 0 0.35 0 0.35 0 0.35 0 0.35 0 0.36 0 0.35 0 0.35 0 0.35 0 0.35 0 0.35 0 0.35 0 0.35 0 0.35 0 0.35 0 0.35 0 0.35 0 0.35 0 0.35 0 0.36 0 0.35 0 0.35 0 0.35 0 0.35 0 0.35 0 0.35 0 0.35 0 0.35 0 0.35 0 0.35 0 0.35 0 0.35 0 0.35 0 0.36 0 0.35 0 0.35 0 0.35 0 0.35 0 0.35 0 0.35 0 0.35 0 0.35 0 0.35 0 0.35 0 0.35 0 0.35 0 0.35 0 0.36 0 0.35 0 0.35 0 0.35 0 0.35 0 0.35 0 0.35 0 0.35 0 0.35 0 0.35 0 0.35 0 0.35 0 0.36 0 0.35 0 0.35 0 0.35 0 0.35 0 0.35 0 0.35 0 0.35 0 0.35 0 0.35 0 0.35 0 0.35 0 0.36 0 0.35c-0.23,18.7 -4.97,31.68 -14.21,38.93 -9.23,7.25 -23.56,10.88 -42.97,10.88zm174.7 -72.96c-11.46,-0.24 -19.94,-2.69 -25.43,-7.37 -5.5,-4.68 -8.25,-13.45 -8.25,-26.31 0,-13.56 3.16,-22.51 9.47,-26.83 6.32,-4.33 16.49,-6.49 30.52,-6.49l47.71 0 0 67 -54.02 0zm-28.06 91.2l55.42 -69.81 26.66 0 0 69.81 24.55 0 0 -179.6 -71.21 0c-22.68,0 -39.28,3.51 -49.8,10.52 -10.53,7.02 -15.79,21.75 -15.79,44.2 0,21.28 4.73,35.66 14.21,43.15 9.47,7.48 24.02,11.45 43.67,11.92l-57.18 69.81 29.47 0z"/>
   <g>
    <path class="fil1" d="M356.76 233.61l120.19 244.84c2.98,6.08 8.98,9.42 15.76,9.73l66.4 2.98c0.28,0.01 0.53,-0.12 0.68,-0.36 0.14,-0.24 0.14,-0.52 0.01,-0.77l-195.27 -382.85c-1.72,-3.09 -4.76,-4.88 -8.3,-4.88 -3.54,0 -6.7,1.73 -8.31,4.88l-195.27 382.85c-0.12,0.24 -0.13,0.53 0.02,0.77 0.15,0.24 0.4,0.37 0.68,0.36l66.4 -2.98c6.78,-0.31 12.78,-3.64 15.76,-9.73l119.92 -244.84c0.12,-0.25 0.38,-0.39 0.66,-0.39 0.29,0 0.55,0.16 0.67,0.39z"/>
    <path class="fil1" d="M563.32 631.38c-7.97,5.95 -16.27,11.62 -24.88,16.97 -8.52,5.3 -17.31,10.27 -26.37,14.88 -42.49,21.65 -87.33,33.85 -132.09,37.37 -46.49,3.66 -92.92,-2.04 -136.58,-16.22 -43.66,-14.19 -84.57,-36.87 -120.04,-67.17 -34.15,-29.16 -63.25,-65.39 -84.91,-107.88 -21.65,-42.49 -33.85,-87.32 -37.37,-132.09 -3.66,-46.49 2.04,-92.91 16.23,-136.57 14.19,-43.66 36.87,-84.58 67.16,-120.04 29.17,-34.15 65.39,-63.26 107.88,-84.91 9.08,-4.62 18.27,-8.82 27.54,-12.6 9.34,-3.79 18.8,-7.18 28.36,-10.14 9.88,-3.06 19.74,-5.63 29.66,-7.77 9.88,-2.12 19.91,-3.83 30.16,-5.17l0 -0.01c0.7,-0.09 1.38,0.03 1.97,0.34 0.58,0.31 1.07,0.8 1.38,1.42l0 0 0.61 1.2 0.03 0.05c0.21,0.42 0.33,0.88 0.35,1.34 0.03,0.5 -0.07,1 -0.28,1.46 -0.2,0.44 -0.48,0.82 -0.84,1.13 -0.35,0.31 -0.75,0.53 -1.19,0.66l-0.07 0.02c-20.8,5.83 -40.45,13.56 -58.87,22.94 -68.6,34.96 -119.81,92.85 -148.66,160.58 -28.86,67.74 -35.35,145.32 -14.55,219.63 5.8,20.72 13.73,41.2 23.9,61.15 10.17,19.96 22.07,38.41 35.41,55.26 47.89,60.49 114.49,100.82 186.27,117.3 71.76,16.46 148.71,9.08 217.3,-25.87 18.41,-9.38 36.21,-20.74 53.12,-34.13l0.01 -0.01c0.37,-0.28 0.79,-0.49 1.26,-0.61l0 0c0.47,-0.11 0.96,-0.12 1.43,-0.02l0.02 0.01c0.47,0.1 0.9,0.3 1.28,0.59 0.38,0.29 0.69,0.65 0.92,1.09l0.01 0.02 0.65 1.27 0.01 0.03c0.3,0.61 0.4,1.28 0.31,1.92l-0.01 0c-0.09,0.64 -0.37,1.25 -0.84,1.75l-0.02 0.01c-7.09,7.5 -14.38,14.61 -21.94,21.38 -7.63,6.83 -15.51,13.3 -23.72,19.44z"/>
   </g>
  </g>
 </g>
</svg>
